<svg t="1704624221262" class="icon" viewBox="0 0 1024 1024" version="1.1" xmlns="http://www.w3.org/2000/svg" p-id="12376" width="200" height="200"><path d="M504.865032 76.700903a29.729032 29.729032 0 0 1 29.729033 29.729032v58.79742a29.729032 29.729032 0 0 1-59.458065 0v-58.79742a29.729032 29.729032 0 0 1 29.729032-29.729032zM911.954581 497.003355a29.729032 29.729032 0 0 1-29.729033 29.729032h-58.797419a29.729032 29.729032 0 0 1 0-59.458064h58.797419a29.729032 29.729032 0 0 1 29.729033 29.729032zM230.234839 497.003355a29.729032 29.729032 0 0 1-29.729033 29.729032H141.774452a29.729032 29.729032 0 0 1 0-59.458064h58.797419a29.729032 29.729032 0 0 1 29.729032 29.729032zM280.642065 312.386065a29.729032 29.729032 0 0 1-42.017033-0.330323L197.367742 270.137806a29.729032 29.729032 0 0 1 42.380387-41.686709l41.25729 41.884903a29.729032 29.729032 0 0 1-0.330322 42.050065zM800.173419 197.632a29.729032 29.729032 0 0 1 0 42.050065l-41.55458 41.587612a29.729032 29.729032 0 0 1-42.050065-42.050064l41.554581-41.587613a29.729032 29.729032 0 0 1 42.050064 0zM430.08 863.595355a29.729032 29.729032 0 0 1 29.729032-29.729032h99.75742a29.729032 29.729032 0 0 1 0 59.458064h-99.75742a29.729032 29.729032 0 0 1-29.729032-29.729032zM511.966968 303.83071a176.557419 176.557419 0 0 0-77.956129 335.079225l5.020903 2.444388 3.732645 4.096c17.341935 18.861419 28.936258 40.827871 36.170323 58.268903l69.632-0.165161c2.972903-7.201032 6.507355-14.567226 10.405161-21.669162 8.192-14.864516 19.224774-30.786065 32.635871-42.809806l2.510452-2.312258 2.972903-1.651613a176.557419 176.557419 0 0 0-85.157162-331.313549z m-236.048516 176.590451a236.015484 236.015484 0 1 1 353.313032 204.866065 115.150452 115.150452 0 0 0-18.167742 25.269677 129.486452 129.486452 0 0 0-12.221936 29.596903l-5.483354 22.759226-157.596904 0.363355-6.276129-21.437935c-3.435355-11.759484-12.221935-34.353548-27.185548-52.356129a235.982452 235.982452 0 0 1-126.381419-209.094194z" p-id="12377"></path><path d="M744.679226 895.339355c16.119742 0 25.170581-8.059871 30.819097-27.416774l15.293935-45.287226h104.943484l15.326968 45.914839c5.41729 18.927484 14.501161 26.789161 31.611871 26.789161 17.70529 0 30.389677-11.891613 30.389677-28.605936 0-6.044903-0.990968-11.462194-3.79871-19.323871l-79.772903-216.328258c-8.654452-23.783226-22.759226-34.221419-46.509419-34.221419-22.957419 0-37.260387 10.900645-45.716645 34.452645l-79.376516 216.097032a62.430968 62.430968 0 0 0-4.029936 19.323871c0 17.507097 11.891613 28.605935 30.819097 28.605936z m59.425032-119.841032l37.656774-119.015226h1.420387l38.449549 119.015226h-77.52671z" p-id="12378"></path></svg>